<svg xmlns="http://www.w3.org/2000/svg" width="40" height="40" viewBox="0 0 40 40">
  <g id="Group_38" data-name="Group 38" transform="translate(-3 -3)">
    <path id="Path_24" data-name="Path 24" d="M5.371,10.583A1.562,1.562,0,0,1,6.91,9h9.851a1.584,1.584,0,0,1,0,3.167H6.91A1.562,1.562,0,0,1,5.371,10.583ZM41.126,21.666H30.613a1.584,1.584,0,0,0,0,3.167H41.126a1.584,1.584,0,0,0,0-3.167ZM22.917,15.333H4.709a1.584,1.584,0,0,0,0,3.167H22.917a1.584,1.584,0,0,0,0-3.167ZM38.925,28H27.535a1.584,1.584,0,0,0,0,3.167h11.39a1.584,1.584,0,0,0,0-3.167Zm-27.7,0H6.91a1.584,1.584,0,0,0,0,3.167h4.31a1.584,1.584,0,0,0,0-3.167Zm4-6.333H4.709a1.584,1.584,0,0,0,0,3.167H15.222a1.584,1.584,0,0,0,0-3.167Z" transform="translate(0.083 2.917)" fill="#13e8ab"/>
    <path id="Path_25" data-name="Path 25" d="M23,3A20,20,0,1,0,43,23,20,20,0,0,0,23,3Zm0,36.923A16.923,16.923,0,1,1,39.923,23,16.923,16.923,0,0,1,23,39.923Z" fill="#fff"/>
  </g>
</svg>
