<svg width="20" height="30" viewBox="0 0 20 30" fill="none" xmlns="http://www.w3.org/2000/svg">
<path d="M15.625 1.875C16.1223 1.875 16.5992 2.07254 16.9508 2.42417C17.3025 2.77581 17.5 3.25272 17.5 3.75V26.25C17.5 26.7473 17.3025 27.2242 16.9508 27.5758C16.5992 27.9275 16.1223 28.125 15.625 28.125H4.375C3.87772 28.125 3.40081 27.9275 3.04918 27.5758C2.69754 27.2242 2.5 26.7473 2.5 26.25V3.75C2.5 3.25272 2.69754 2.77581 3.04918 2.42417C3.40081 2.07254 3.87772 1.875 4.375 1.875H15.625ZM4.375 0C3.38044 0 2.42661 0.395088 1.72335 1.09835C1.02009 1.80161 0.625 2.75544 0.625 3.75V26.25C0.625 27.2446 1.02009 28.1984 1.72335 28.9016C2.42661 29.6049 3.38044 30 4.375 30H15.625C16.6196 30 17.5734 29.6049 18.2766 28.9016C18.9799 28.1984 19.375 27.2446 19.375 26.25V3.75C19.375 2.75544 18.9799 1.80161 18.2766 1.09835C17.5734 0.395088 16.6196 0 15.625 0L4.375 0Z" fill="white" fill-opacity="0.6"/>
<path d="M10 26.25C10.4973 26.25 10.9742 26.0525 11.3258 25.7008C11.6775 25.3492 11.875 24.8723 11.875 24.375C11.875 23.8777 11.6775 23.4008 11.3258 23.0492C10.9742 22.6975 10.4973 22.5 10 22.5C9.50272 22.5 9.02581 22.6975 8.67418 23.0492C8.32254 23.4008 8.125 23.8777 8.125 24.375C8.125 24.8723 8.32254 25.3492 8.67418 25.7008C9.02581 26.0525 9.50272 26.25 10 26.25Z" fill="white" fill-opacity="0.6"/>
</svg>
